HIERARCHY
ROOT hip
{
  OFFSET 0 0 0
  CHANNELS 6 Xposition Yposition Zposition Zrotation Yrotation Xrotation
  JOINT abdomen
  {
    OFFSET 0 20.6881 -0.73152
    CHANNELS 3 Zrotation Xrotation Yrotation
    JOINT chest
    {
      OFFSET 0 11.7043 -0.48768
      CHANNELS 3 Zrotation Xrotation Yrotation
      JOINT neck
      {
        OFFSET 0 22.1894 -2.19456
        CHANNELS 3 Zrotation Xrotation Yrotation
        JOINT head
        {
          OFFSET -0.24384 7.07133 1.2192
          CHANNELS 3 Zrotation Xrotation Yrotation
          JOINT leftEye
          {
            OFFSET 4.14528 8.04674 8.04672
            CHANNELS 3 Zrotation Xrotation Yrotation
            End Site
            {
              OFFSET 1 0 0
            }
          }
          JOINT rightEye
          {
            OFFSET -3.6576 8.04674 8.04672
            CHANNELS 3 Zrotation Xrotation Yrotation
            End Site
            {
              OFFSET 1 0 0
            }
          }
        }
      }
      JOINT rCollar
      {
        OFFSET -2.68224 19.2634 -4.8768
        CHANNELS 3 Zrotation Xrotation Yrotation
        JOINT rShldr
        {
          OFFSET -8.77824 -1.95073 1.46304
          CHANNELS 3 Zrotation Xrotation Yrotation
          JOINT rForeArm
          {
            OFFSET -28.1742 -1.7115 0.48768
            CHANNELS 3 Zrotation Xrotation Yrotation
            JOINT rHand
            {
              OFFSET -22.5879 0.773209 7.07136
              CHANNELS 3 Zrotation Xrotation Yrotation
              JOINT rThumb1
              {
                OFFSET -1.2192 -0.487915 3.41376
                CHANNELS 3 Zrotation Xrotation Yrotation
                JOINT rThumb2
                {
                  OFFSET -3.37035 -0.52449 3.41376
                  CHANNELS 3 Zrotation Xrotation Yrotation
                  End Site
                  {
                    OFFSET -1.78271 -1.18214 1.43049
                  }
                }
              }
              JOINT rIndex1
              {
                OFFSET -7.75947 0.938293 5.60832
                CHANNELS 3 Zrotation Xrotation Yrotation
                JOINT rIndex2
                {
                  OFFSET -2.54057 -0.884171 1.56538
                  CHANNELS 3 Zrotation Xrotation Yrotation
                  End Site
                  {
                    OFFSET -1.62519 -0.234802 1.16502
                  }
                }
              }
              JOINT rMid1
              {
                OFFSET -8.24714 1.18213 3.41376
                CHANNELS 3 Zrotation Xrotation Yrotation
                JOINT rMid2
                {
                  OFFSET -3.10165 -0.590103 1.0647
                  CHANNELS 3 Zrotation Xrotation Yrotation
                  End Site
                  {
                    OFFSET -2.48547 -0.328903 0.83742
                  }
                }
              }
              JOINT rRing1
              {
                OFFSET -8.82822 0.546677 1.51678
                CHANNELS 3 Zrotation Xrotation Yrotation
                JOINT rRing2
                {
                  OFFSET -2.60934 -0.819778 -0.0198488
                  CHANNELS 3 Zrotation Xrotation Yrotation
                  End Site
                  {
                    OFFSET -2.33842 -0.294052 0.168128
                  }
                }
              }
              JOINT rPinky1
              {
                OFFSET -8.27202 -0.0477905 -0.4584
                CHANNELS 3 Zrotation Xrotation Yrotation
                JOINT rPinky2
                {
                  OFFSET -1.82734 -0.647385 -0.700984
                  CHANNELS 3 Zrotation Xrotation Yrotation
                  End Site
                  {
                    OFFSET -1.69225 -0.51767 -0.607171
                  }
                }
              }
            }
          }
        }
      }
      JOINT lCollar
      {
        OFFSET 2.68224 19.2634 -4.8768
        CHANNELS 3 Zrotation Xrotation Yrotation
        JOINT lShldr
        {
          OFFSET 8.77824 -1.95073 1.46304
          CHANNELS 3 Zrotation Xrotation Yrotation
          JOINT lForeArm
          {
            OFFSET 28.1742 -1.7115 0.48768
            CHANNELS 3 Zrotation Xrotation Yrotation
            JOINT lHand
            {
              OFFSET 22.5879 0.773209 7.07136
              CHANNELS 3 Zrotation Xrotation Yrotation
              JOINT lThumb1
              {
                OFFSET 1.2192 -0.487915 3.41376
                CHANNELS 3 Zrotation Xrotation Yrotation
                JOINT lThumb2
                {
                  OFFSET 3.37035 -0.52449 3.41376
                  CHANNELS 3 Zrotation Xrotation Yrotation
                  End Site
                  {
                    OFFSET 1.78271 -1.18214 1.43049
                  }
                }
              }
              JOINT lIndex1
              {
                OFFSET 7.75947 0.938293 5.60832
                CHANNELS 3 Zrotation Xrotation Yrotation
                JOINT lIndex2
                {
                  OFFSET 2.54057 -0.884171 1.56538
                  CHANNELS 3 Zrotation Xrotation Yrotation
                  End Site
                  {
                    OFFSET 1.62519 -0.234802 1.16502
                  }
                }
              }
              JOINT lMid1
              {
                OFFSET 8.24714 1.18213 3.41376
                CHANNELS 3 Zrotation Xrotation Yrotation
                JOINT lMid2
                {
                  OFFSET 3.10165 -0.590103 1.0647
                  CHANNELS 3 Zrotation Xrotation Yrotation
                  End Site
                  {
                    OFFSET 2.48547 -0.328903 0.83742
                  }
                }
              }
              JOINT lRing1
              {
                OFFSET 8.82822 0.546677 1.51678
                CHANNELS 3 Zrotation Xrotation Yrotation
                JOINT lRing2
                {
                  OFFSET 2.60934 -0.819778 -0.0198488
                  CHANNELS 3 Zrotation Xrotation Yrotation
                  End Site
                  {
                    OFFSET 2.33842 -0.294052 0.168128
                  }
                }
              }
              JOINT lPinky1
              {
                OFFSET 8.27202 -0.0477905 -0.4584
                CHANNELS 3 Zrotation Xrotation Yrotation
                JOINT lPinky2
                {
                  OFFSET 1.82734 -0.647385 -0.700984
                  CHANNELS 3 Zrotation Xrotation Yrotation
                  End Site
                  {
                    OFFSET 1.69225 -0.51767 -0.607171
                  }
                }
              }
            }
          }
        }
      }
    }
  }
  JOINT rButtock
  {
    OFFSET -8.77824 4.35084 1.2192
    CHANNELS 3 Zrotation Xrotation Yrotation
    JOINT rThigh
    {
      OFFSET 0 -1.70687 -2.19456
      CHANNELS 3 Zrotation Xrotation Yrotation
      JOINT rShin
      {
        OFFSET 0 -36.8199 0.73152
        CHANNELS 3 Zrotation Xrotation Yrotation
        JOINT rFoot
        {
          OFFSET 0.73152 -45.1104 -5.12064
          CHANNELS 3 Zrotation Xrotation Yrotation
          End Site
          {
            OFFSET -1.1221 -3.69964 12.103
          }
        }
      }
    }
  }
  JOINT lButtock
  {
    OFFSET 8.77824 4.35084 1.2192
    CHANNELS 3 Zrotation Xrotation Yrotation
    JOINT lThigh
    {
      OFFSET 0 -1.70687 -2.19456
      CHANNELS 3 Zrotation Xrotation Yrotation
      JOINT lShin
      {
        OFFSET 0 -36.8199 0.73152
        CHANNELS 3 Zrotation Xrotation Yrotation
        JOINT lFoot
        {
          OFFSET -0.73152 -45.1104 -5.12064
          CHANNELS 3 Zrotation Xrotation Yrotation
          End Site
          {
            OFFSET 1.1221 -3.69964 12.103
          }
        }
      }
    }
  }
}
MOTION
Frames:	4
Frame Time:	0.03333
0.037880443036556244 -0.018803689628839493 -0.007120823487639427 -8.080538883805275 -6.437768340110779 -11.566438972949982 9.201967120170593 -10.456732660531998 4.945821091532707 -10.990957617759705 1.7135003954172134 2.806304767727852 6.598871201276779 -9.458100646734238 0.3961971402168274 9.033754393458366 8.573225811123848 -3.899136297404766 2.8809405863285065 7.43247963488102 -0.6004513800144196 -4.320385940372944 8.298057317733765 6.485014110803604 -8.551758080720901 -8.600444868206978 3.2872939109802246 0.9090455621480942 2.689139675348997 -9.71368096768856 -4.381906092166901 0.9756535291671753 9.638488590717316 7.690580561757088 9.315081238746643 0.764317000284791 1.6888953186571598 -3.9985205233097076 12.278625816106796 6.8870095163583755 2.5316740572452545 -3.23614452034235 2.8433849662542343 7.062765955924988 6.541308984160423 -6.862991005182266 -10.751863494515419 1.2037046626210213 -0.6315741408616304 -1.7246164754033089 9.757060334086418 -2.948857806622982 6.809655278921127 -5.6725287437438965 -10.680894255638123 10.727836936712265 -6.629767566919327 -3.5167820379137993 -0.13804307207465172 -4.2613039165735245 -9.49769340455532 2.5579825043678284 -0.8471830934286118 -2.8998900577425957 -2.8786908835172653 -8.957007005810738 -5.715519189834595 6.251261606812477 2.8661103174090385 -6.990018412470818 -3.684844896197319 -8.62325705587864 -0.14815877191722393 11.48978278040886 -9.581867158412933 -8.668281957507133 -7.550177648663521 -4.7339460253715515 -8.2354686409235 -6.45144023001194 0.46381009742617607 5.507657378911972 -8.831415921449661 -7.85940483212471 -7.46835820376873 7.193103209137917 6.173875853419304 -5.703399628400803 -7.779770046472549 -1.2221678160130978 -10.668959766626358 5.984810292720795 -5.255364775657654 -0.877764131873846 -3.7207097187638283 -6.024009436368942 -8.001927360892296 6.723272725939751 -0.32607899978756905 -8.920356631278992 5.366284176707268 -7.822824865579605 -6.458961144089699 3.3663567155599594 5.063892938196659 -10.37690207362175 7.1233925968408585 0.7209852430969477 2.323656342923641 0.20036180969327688 -9.255969375371933 -3.9595376327633858 1.6987928375601768 4.06234435737133 6.171162128448486 10.226152539253235 10.064741224050522 -6.0654569417238235 -5.068977065384388 0.8420179970562458 -9.089550375938416 -12.533954679965973 6.9106511771678925 1.682453490793705 -6.791424974799156 -0.9372867923229933 9.4609035551548 -0.5577618442475796 10.19221656024456 7.914760261774063 -4.403649419546127 -2.8477948531508446
0.08042795211076736 -0.019344590604305267 -0.015033774077892303 -7.114481627941132 -5.715223476290703 -11.812491416931152 10.553588569164276 -12.341291606426239 6.366581842303276 -12.378087490797043 1.4352282509207726 1.8649370782077312 6.407889872789383 -8.677521497011185 0.06440788507461548 10.223047882318497 9.087834432721138 -3.8870666921138763 2.5624235719442368 6.979250013828278 0.2784312330186367 -5.88816225528717 8.496463000774384 7.394253462553024 -8.003185987472534 -8.7252876162529 3.527306355535984 -0.5427181720733643 2.9908782988786697 -9.654353857040405 -3.2755035907030106 0.21296991035342216 9.790463894605637 7.568027079105377 10.65666452050209 0.037276335060596466 2.1720181591808796 -4.3823473155498505 12.849539369344711 7.062671408057213 2.4603869765996933 -3.142970949411392 2.717353831976652 7.64336496591568 4.8568884283304214 -7.317575812339783 -10.452752262353897 1.108076786622405 -0.19656384363770485 -1.7039907909929752 10.284135863184929 -3.4430601820349693 6.1323948204517365 -5.516604892909527 -11.069902405142784 11.585034728050232 -7.115775793790817 -2.211242951452732 -0.4202847182750702 -4.1921186819672585 -9.851817414164543 2.8131212666630745 -0.906116422265768 -2.786393389105797 -1.6747461631894112 -7.795069366693497 -5.46783059835434 5.713801234960556 2.837246060371399 -7.228518426418304 -4.24366470426321 -9.65844489634037 0.1029461994767189 12.1849724650383 -10.431738495826721 -9.413827434182167 -8.452780544757843 -4.589889608323574 -9.358581304550171 -7.921997532248497 1.1003246158361435 4.963284619152546 -7.865788489580154 -7.063653767108917 -6.909308731555939 7.7899570763111115 6.912126392126083 -5.088988021016121 -8.39887484908104 -1.020926870405674 -11.52952641248703 6.350563019514084 -4.507968574762344 -1.179718254134059 -3.135770559310913 -5.555658861994743 -8.034972175955772 6.285774931311607 -1.2957569025456905 -8.753426671028137 5.122212544083595 -8.218840956687927 -5.8985598385334015 5.089876502752304 5.40428102016449 -11.015514582395554 7.589512914419174 0.25555819272994995 2.1393805369734764 0.21696556359529495 -9.168613851070404 -4.17762067168951 2.3575088381767273 4.990550950169563 6.530640497803688 11.176492720842361 9.647083729505539 -6.729773730039597 -3.5876691341400146 0.36980923265218735 -9.143877848982811 -13.51139321923256 6.987375095486641 0.5786765366792679 -5.259563773870468 -0.6568847224116325 9.573018550872803 -1.9762003049254417 10.06949745118618 7.474357634782791 -3.753698542714119 -0.6744612380862236
0.1269078254699707 -0.016388580203056335 -0.024692347273230553 -8.689858317375183 -6.561882868409157 -11.633027493953705 13.366933465003967 -12.446548193693161 8.02139550447464 -12.527663558721542 0.03562828525900841 1.1626910045742989 6.19765967130661 -8.948020935058594 1.0985550284385681 10.680305510759354 6.849455907940865 -2.9639120399951935 2.020194735378027 7.104025036096573 1.002129279077053 -5.9458015859127045 8.24144460260868 8.690845370292664 -7.554480582475662 -8.530074432492256 5.468611121177673 0.1371319591999054 4.2055488377809525 -8.958274349570274 -0.8951020985841751 -0.45952141284942627 9.720158502459526 9.424471110105515 11.634073555469513 -1.1263844557106495 3.331889994442463 -3.7067605555057526 13.75159040093422 5.298417247831821 2.22524156793952 -3.9504050463438034 2.171623706817627 7.837238386273384 6.020655333995819 -8.059430569410324 -11.823308765888214 0.7395043037831783 -0.5676453653723001 -1.4410280250012875 9.103385880589485 -3.2083749398589134 6.0161760449409485 -5.195572637021542 -11.533425003290176 10.804536044597626 -7.133133038878441 -0.6494107469916344 -1.3307153061032295 -4.843969568610191 -9.176069051027298 2.2920672968029976 0.5470137298107147 -2.4115144461393356 -0.42194198817014694 -6.901994347572327 -4.589868485927582 7.301018536090851 1.1767732724547386 -6.790073812007904 -5.834162682294846 -9.194840490818024 0.3665674477815628 10.87440624833107 -11.854540407657623 -9.81932781636715 -9.649999290704727 -4.86719012260437 -10.061923563480377 -9.024773687124252 0.7287962548434734 4.5886339992284775 -7.935110181570053 -6.508842185139656 -7.7896492928266525 8.007110059261322 7.9606689512729645 -4.228976592421532 -9.688299894332886 -2.8824761509895325 -12.320798188447952 7.949441224336624 -3.6193963140249252 -2.196775618940592 -4.4646358117461205 -4.338512979447842 -8.354303240776062 5.565701723098755 -2.799513414502144 -9.951405823230743 3.3178747817873955 -8.308666124939919 -7.084619253873825 6.867650002241135 4.7438520938158035 -10.011284127831459 8.694781512022018 -1.1598634533584118 1.701331716030836 1.0466893203556538 -6.983543559908867 -4.32971466332674 3.642096519470215 5.748109370470047 5.703103244304657 12.582658231258392 8.65736536681652 -7.059307247400284 -3.2906946167349815 0.05784619599580765 -7.955132871866226 -15.612268298864365 7.256502583622932 1.1293407529592514 -4.303828328847885 -1.6185317561030388 10.355847403407097 -3.8178998976945877 9.27164152264595 7.031657695770264 -4.0360406041145325 0.5932228267192841
0.1758364662528038 -0.01299479603767395 -0.03481714054942131 -11.386579424142838 -7.9552314430475235 -11.386323273181915 16.414770483970642 -11.743412464857101 9.832416325807571 -12.027081549167633 -1.7924921214580536 0.7635897025465965 5.915096327662468 -9.823042005300522 2.755616046488285 11.006392389535904 3.452630639076233 -1.7987421713769436 1.8606963381171227 7.126190811395645 1.6618014872074127 -5.20113117992878 7.7955930680036545 10.152816250920296 -6.860314160585403 -8.934502601623535 7.790060341358185 1.7569250240921974 5.557076074182987 -7.651333808898926 2.071734219789505 -1.4213186502456665 9.287952035665512 12.188529074192047 11.962662935256958 -2.3885292559862137 4.887503497302532 -2.9270480945706367 14.53354686498642 3.0546917393803596 1.6132085770368576 -5.158513560891151 1.6254763305187225 7.412397265434265 8.224459514021873 -8.69551107287407 -13.466180562973022 0.08340798318386078 -0.90408137999475 -1.0145953483879566 7.77897410094738 -3.0417450517416 5.794448554515839 -5.216466039419174 -11.994225829839706 9.336327686905861 -6.805041879415512 0.46111665666103363 -2.3405086621642113 -5.953144133090973 -8.530208542943 1.7816724255681038 2.813522592186928 -2.081409450620413 0.07369939237833023 -5.626535564661026 -2.9921218380331993 9.473283290863037 -1.2597457319498062 -6.189368963241577 -8.388287499547005 -8.285668194293976 0.6362464651465416 8.944365084171295 -13.574567288160324 -10.024555027484894 -10.641569048166275 -5.206652842462063 -10.49079805612564 -9.579115211963654 -0.1997571811079979 4.256188943982124 -8.250210732221603 -5.985447987914085 -8.755469843745232 7.362655699253082 9.004379510879517 -3.8568157330155373 -10.936441719532013 -5.858350843191147 -13.02998498082161 10.316450446844101 -2.6065321639180183 -3.53584885597229 -6.624019593000412 -2.5029418990015984 -8.65278348326683 5.022557079792023 -4.304941110312939 -11.24461144208908 0.7331576943397522 -8.236467763781548 -8.67107480764389 8.006133064627647 3.6889225244522095 -8.861547857522964 9.96464654803276 -2.3653576523065567 0.8310552220791578 1.831534020602703 -3.8394252955913544 -4.193380996584892 5.800055041909218 6.370080783963203 5.045154690742493 14.122790694236755 7.996919676661491 -7.085440009832382 -3.700059726834297 -0.2453426644206047 -6.482699364423752 -18.11323642730713 7.526875287294388 1.7304988950490952 -3.4041906148195267 -2.8198526054620743 11.652799397706985 -6.192381754517555 8.84569063782692 6.775156706571579 -4.611276537179947 1.153762936592102
